<svg width="48" height="48" viewBox="0 0 48 48" fill="none" xmlns="http://www.w3.org/2000/svg">
<path fill-rule="evenodd" clip-rule="evenodd" d="M46.7486 7.84981C47.3839 8.38155 47.4678 9.32758 46.9361 9.96284L31.5901 28.2962C31.292 28.6523 30.8457 28.8503 30.3817 28.8322C29.9176 28.8142 29.4881 28.5823 29.2185 28.2041L21.7787 17.7689C21.2978 17.0943 21.4548 16.1576 22.1293 15.6767C22.8039 15.1958 23.7406 15.3528 24.2215 16.0273L30.5349 24.8828L44.6356 8.03724C45.1673 7.40198 46.1134 7.31807 46.7486 7.84981Z" fill="#1B344B"/>
<path fill-rule="evenodd" clip-rule="evenodd" d="M37.555 11.8227C37.0973 10.751 36.0338 10 34.7949 10H6C4.34315 10 3 11.3431 3 13V29.6608C3 31.3177 4.34315 32.6608 6 32.6608H10.3771C12.5862 32.6608 14.3771 34.4517 14.3771 36.6608V36.7764L17.3373 33.8271C18.087 33.0802 19.1022 32.6608 20.1604 32.6608H34.7949C36.4517 32.6608 37.7949 31.3177 37.7949 29.6608V25.5577L40.7949 21.9737V29.6608C40.7949 32.9745 38.1086 35.6608 34.7949 35.6608H20.1604C19.8959 35.6608 19.6421 35.7657 19.4547 35.9524L14.3771 41.0111L14.3128 41.0751L13.7939 41.5921L13.0828 42.3005C12.4523 42.9287 11.3771 42.4821 11.3771 41.5921V40.5884V39.8559V39.7652V36.6608C11.3771 36.1085 10.9293 35.6608 10.3771 35.6608H6C2.68629 35.6608 0 32.9745 0 29.6608V13C0 9.68629 2.68629 7 6 7H34.7949C36.7544 7 38.4944 7.9393 39.5894 9.3922L37.555 11.8227ZM37.7949 16.21V20.8839L40.7949 17.2999V13C40.7949 12.8787 40.7913 12.7583 40.7842 12.6388L37.7949 16.21Z" fill="#1B344B"/>
</svg>
